<svg xmlns="http://www.w3.org/2000/svg" width="774.15" height="125.96" viewBox="0 0 204.83 33.33">
   <path fill="#2f2f2f" d="M8.07 1.87V19.9q0 2.33-1.15 3.55-1.12 1.22-4.16 2.2L1 22.4q1.79-.64 2.2-1.18.44-.55.44-1.97V1.88zM16.3 20q0 .7.58 1.28.57.55 1.52.55.92 0 1.83-.41.95-.4 1.8-1.22v-2.5h-3.32q-1.15 0-1.8.7-.6.72-.6 1.6zm2.17 5.31q-3.01 0-4.47-1.45-1.46-1.5-1.46-3.86 0-2.54 1.73-3.9 1.73-1.35 4.5-1.35h3.22q-.03-1.25-.74-1.93-.68-.71-1.9-.71-1.15 0-2.5.34-1.36.3-2.27.74l-1.19-3.66q.95-.64 2.88-1.05 1.96-.44 3.01-.44 2.95 0 5.05 1.73 2.1 1.7 2.1 4.33v10.8h-2.28l-1.08-1.38q-.92.71-2.17 1.25-1.22.54-2.44.54zm19.54-3.75q2.27 0 3.18-1.63.92-1.66.92-3.35 0-1.93-.81-3.46-.82-1.52-3.29-1.52-.71 0-1.49.27-.74.24-1.42.68v8.06q.68.4 1.42.67.78.28 1.5.28zM30.73 8.48h2.24l.94 1.22q1.12-.84 2.61-1.35 1.5-.51 2.64-.51 3.63 0 5.56 2.5 1.93 2.51 1.93 6.24 0 3.72-2 6.23-1.97 2.5-5.49 2.5-.88 0-2-.3-1.08-.3-2.06-.85v7.83l-4.37.34zM53.45 20q0 .7.58 1.28.58.55 1.52.55.92 0 1.83-.41.95-.4 1.8-1.22v-2.5h-3.33q-1.15 0-1.8.7-.6.72-.6 1.6zm2.17 5.31q-3.01 0-4.47-1.45-1.45-1.5-1.45-3.86 0-2.54 1.72-3.9 1.73-1.35 4.5-1.35h3.22q-.03-1.25-.74-1.93-.68-.71-1.9-.71-1.15 0-2.5.34-1.36.3-2.27.74l-1.19-3.66q.95-.64 2.88-1.05 1.96-.44 3.01-.44 2.95 0 5.05 1.73 2.1 1.7 2.1 4.33v10.8h-2.27l-1.08-1.38q-.92.71-2.17 1.25-1.22.54-2.44.54zM76.65 8.48l.88 3.52q-1.11 0-2.6.65-1.46.64-2.88 1.9v10.36h-4.4V8.47h2.3l1.45 2.4q1.02-.87 2.48-1.62 1.45-.78 2.77-.78zm5.32-7.28q1.05 0 1.76.71.75.71.75 1.76t-.75 1.76q-.71.72-1.76.72-1.02 0-1.73-.72-.7-.7-.7-1.76 0-1.05.7-1.76.71-.7 1.73-.7zm2.2 7.28v16.43h-4.4V8.47zm19.28-2.44q-1.63-.5-2.58-.7-.95-.24-2.3-.24-2.75 0-4.24 2.23-1.49 2.24-1.49 6.13 0 3.35 1.25 5.8 1.26 2.43 4.2 2.43 1.46 0 2.71-.3 1.29-.3 2.34-.75l1.66 3.25q-1.32.68-3.18 1.09-1.87.4-3.29.4-5.38 0-7.82-3.45-2.44-3.46-2.44-8.43 0-5.32 2.67-8.7 2.71-3.4 7.76-3.4 1.02 0 2.81.34 1.8.34 3.29 1.15zm9.68 3.53q1.08-.85 2.47-1.29 1.42-.44 2.54-.44 3.35 0 4.74 1.96 1.42 1.97 1.42 4.81v10.3h-4.4v-10.1q0-1.55-.74-2.36-.75-.85-2.2-.85-.95 0-1.97.5-1.02.48-1.86 1.12v11.69h-4.38V1.37l4.37-.37zm24.22-1.09.87 3.52q-1.11 0-2.6.65-1.46.64-2.88 1.9v10.36h-4.4V8.47h2.3l1.45 2.4q1.02-.87 2.48-1.62 1.45-.78 2.77-.78zm10.7 16.83q-3.9 0-6.1-2.33-2.17-2.37-2.17-6.34 0-3.92 2.27-6.26 2.3-2.34 6.26-2.34 4.1 0 6.34 2.44 2.27 2.4 2.27 6.33t-2.44 6.24q-2.44 2.26-6.44 2.26zm4.33-8.5q0-2.33-1.05-3.65-1.02-1.36-2.91-1.36-1.93 0-3.02 1.19-1.08 1.18-1.08 3.62 0 2.44.91 3.7.95 1.25 2.88 1.25 1.9 0 3.08-1.12 1.19-1.15 1.19-3.63zM193.7 20q0 .7.57 1.28.58.55 1.53.55.91 0 1.82-.41.95-.4 1.8-1.22v-2.5h-3.32q-1.15 0-1.8.7-.6.72-.6 1.6zm2.16 5.31q-3.01 0-4.47-1.45-1.45-1.5-1.45-3.86 0-2.54 1.72-3.9 1.73-1.35 4.5-1.35h3.23q-.04-1.25-.75-1.93-.68-.71-1.9-.71-1.15 0-2.5.34-1.36.3-2.27.74l-1.19-3.66q.95-.64 2.88-1.05 1.97-.44 3.02-.44 2.94 0 5.04 1.73 2.1 1.7 2.1 4.33v10.8h-2.27l-1.08-1.38q-.92.71-2.17 1.25-1.22.54-2.44.54z"/>
   <g fill-rule="evenodd">
      <path d="M163.67 4.67c3.94 0 6.75 2.32 6.03 4.99l-4.1 15.3h-7.37z" fill="#e64137"/>
      <path d="M172.38 7.54c3.13 0 6.9 1.75 6.2 4.39l-3.5 13.04h-7.37z" fill="#4ad765"/>
      <path d="M181.86 7.54c3.12 0 6.9 1.75 6.2 4.39l-3.5 13.04h-7.37z" fill="#4864c9"/>
   </g>
</svg>
