<svg xmlns="http://www.w3.org/2000/svg" viewBox="0 0 173.21 33.33" height="125.96" width="654.66">
  <path fill="#373737" stroke-width=".26" d="M8.08 1.88V19.9q0 2.33-1.15 3.55-1.12 1.22-4.17 2.2L1 22.4q1.8-.64 2.2-1.18.44-.54.44-1.97V1.88h4.44zM16.3 20q0 .71.57 1.29.58.54 1.52.54.92 0 1.83-.4.95-.41 1.8-1.23v-2.5H18.7q-1.15 0-1.8.7-.6.72-.6 1.6zm2.16 5.32q-3.01 0-4.47-1.46-1.46-1.49-1.46-3.86 0-2.54 1.73-3.9 1.73-1.35 4.5-1.35h3.22q-.03-1.25-.74-1.93-.68-.71-1.9-.71-1.15 0-2.5.34-1.36.3-2.27.74l-1.19-3.66q.95-.64 2.88-1.05 1.96-.44 3.01-.44 2.95 0 5.05 1.73 2.1 1.7 2.1 4.34v10.8h-2.27l-1.08-1.39q-.92.71-2.17 1.25-1.22.55-2.44.55zM37.99 21.56q2.27 0 3.18-1.63.92-1.66.92-3.35 0-1.93-.82-3.46-.8-1.52-3.28-1.52-.71 0-1.49.27-.75.24-1.42.68v8.06q.67.4 1.42.68.78.27 1.49.27zM30.71 8.48h2.23l.95 1.22q1.12-.84 2.61-1.35 1.49-.5 2.64-.5 3.63 0 5.56 2.5 1.93 2.5 1.93 6.23 0 3.72-2 6.23-1.97 2.5-5.49 2.5-.88 0-2-.3-1.08-.3-2.06-.85V32l-4.37.34V8.48zM53.4 20q0 .71.58 1.29.57.54 1.52.54.92 0 1.83-.4.95-.41 1.8-1.23v-2.5H55.8q-1.16 0-1.8.7-.6.72-.6 1.6zm2.17 5.32q-3.01 0-4.47-1.46-1.46-1.49-1.46-3.86 0-2.54 1.73-3.9 1.73-1.35 4.5-1.35h3.22q-.03-1.25-.74-1.93-.68-.71-1.9-.71-1.15 0-2.5.34-1.36.3-2.28.74L50.5 9.53q.95-.64 2.88-1.05 1.96-.44 3.01-.44 2.95 0 5.05 1.73 2.1 1.7 2.1 4.34v10.8h-2.27l-1.08-1.39q-.92.71-2.17 1.25-1.22.55-2.44.55zM76.59 8.48l.88 3.53q-1.12 0-2.6.64-1.47.64-2.89 1.9V24.9h-4.4V8.48h2.3l1.46 2.4q1.01-.87 2.47-1.62 1.46-.78 2.78-.78zM81.89 1.2q1.05 0 1.76.71.74.72.74 1.77t-.74 1.76q-.71.7-1.76.7-1.02 0-1.73-.7-.71-.71-.71-1.76t.7-1.77q.72-.7 1.74-.7zm2.2 7.28v16.43h-4.4V8.48h4.4zM96.17 5.54h-2.7v7.04h2.77q1.96 0 3.25-.78 1.29-.8 1.29-2.64 0-1.93-1.22-2.78-1.22-.84-3.39-.84zm6.3 19.37l-4.88-8.8-.77.06h-3.36v8.74H89.1V1.88h7.22q3.76 0 6.43 1.73 2.68 1.72 2.68 5.35 0 2.13-1.12 3.69-1.08 1.52-2.81 2.37l5.66 9.89h-4.68zM112.87 20q0 .71.57 1.29.58.54 1.53.54.91 0 1.83-.4.94-.41 1.79-1.23v-2.5h-3.32q-1.15 0-1.8.7-.6.72-.6 1.6zm2.16 5.32q-3.01 0-4.47-1.46-1.45-1.49-1.45-3.86 0-2.54 1.73-3.9 1.72-1.35 4.5-1.35h3.22q-.04-1.25-.75-1.93-.68-.71-1.9-.71-1.15 0-2.5.34-1.36.3-2.27.74l-1.19-3.66q.95-.64 2.88-1.05 1.97-.44 3.02-.44 2.94 0 5.04 1.73 2.1 1.7 2.1 4.34v10.8h-2.27l-1.08-1.39q-.91.71-2.17 1.25-1.22.55-2.44.55zM135 11.6q-2.3 0-3.21 1.63-.88 1.62-.88 3.35 0 1.93.8 3.45.82 1.53 3.3 1.53.77 0 1.62-.34.88-.37 1.62-.85V12.8q-.74-.51-1.62-.85-.85-.34-1.63-.34zM142.7 1v23.91h-2.31l-1.22-1.6q-1.12.96-2.64 1.5-1.5.5-2.71.5-3.6 0-5.52-2.5-1.93-2.5-1.93-6.23 0-3.73 2.03-6.23 2.06-2.5 5.62-2.5.92 0 2.07.33 1.15.3 2.16.88V1.37L142.7 1zM149.29 1.2q1.05 0 1.76.71.74.72.74 1.77t-.74 1.76q-.71.7-1.76.7-1.02 0-1.73-.7-.71-.71-.71-1.76t.71-1.77q.71-.7 1.73-.7zm2.2 7.28v16.43h-4.4V8.48h4.4zM163.34 25.32q-3.9 0-6.1-2.34-2.17-2.37-2.17-6.33 0-3.93 2.27-6.27 2.3-2.34 6.27-2.34 4.1 0 6.33 2.44 2.27 2.4 2.27 6.34 0 3.92-2.44 6.23-2.44 2.27-6.43 2.27zm4.33-8.5q0-2.34-1.05-3.66-1.01-1.36-2.91-1.36-1.93 0-3.01 1.19-1.09 1.18-1.09 3.62 0 2.44.92 3.7.95 1.25 2.88 1.25 1.9 0 3.08-1.12 1.18-1.15 1.18-3.62z"/>
</svg>
