<svg xmlns="http://www.w3.org/2000/svg" width="1898.16" height="952.42" viewBox="0 0 1779.53 892.9">
  <path d="M898.96 586.53l-56.08 149.12m0 0l74.56-18.48m0 0l-18.48 93.04m0 0l56.08-130.64m0 0l-74.56 18.48m0 0l18.48-111.52m688.91 185.45h0c0-30.6-25.5-55.45-56.09-55.45a55.48 55.48 0 00-55.44 55.45c0 30.59 24.86 56.08 55.44 56.08 30.6 0 56.09-25.5 56.09-56.08M78.13 586.53h0c-20.4 0-36.32 15.93-36.32 36.32m296.97 0h0c0-20.4-16.57-36.32-36.96-36.32M190.93 809.58h0c0 20.39 15.93 36.96 36.33 36.96m112.16 0h0a36.99 36.99 0 0036.96-36.96m709.94-128.73c54.8-24.86 93.68-74.57 105.8-133.2m8.91 121.09c43.98-26.77 73.93-70.74 84.12-121.09M1737 748.4h0c0-28.04-14.03-53.53-37.6-69.47m18.47 93.05h0a18.5 18.5 0 0018.48-18.48M60.29 549.56h260.65M41.8 679.57v-56.08m36.97-36.96h223.69m37.6 36.96v56.08M78.77 623.49h74.56m-74.56 37.6h74.56m74.57-37.6h74.56m-74.56 37.6h74.56M190.93 549.56v141.48M78.77 721v89.21m0-89.21h223.69m0 0v89.21m0 0H78.76m.01-44.61h223.69m-111.53-29.95v74.56m36.97 36.97h112.16m36.96-74.57l-36.96 37.6m0 0h74.56m0 0l-37.6-37.6m37.6-74.56h297.61m-260.65-130h205.2m.01 0l-93.04 74.56m0-.01v186.1m-37.6 0h37.6M786.8 586.53h223.68M749.83 810.21h298.25m-130.64-93.04l-18.48 93.04m353.69-186.72h130.65m-93.05 0v223.69m0-149.13h93.05m-93.05 74.56h93.05m149.12-223.05v36.97m-74.56 0h149.12m-149.12 93.04h149.12m-149.12-93.04l74.56 93.04m74.56-93.04l-74.56 93.04m111.53-111.52v279.13m0-279.13h93.68m0 0l-37.6 111.52m18.48 93.04h-36.96M1159.6 623.49V851M898.96 586.53l-56.08 149.12m0 0l74.56-18.48m0 0l-18.48 93.04m0 0l56.08-130.64m0 0l-74.56 18.48m0 0l18.48-111.52M386.92 311.47C426.42 279.6 450 231.8 450 180.83c0-2.55.63-5.94.57-9.1m239.06 56.25h0c0 50.99 41.42 93.05 92.4 93.05 50.99 0 93.05-42.06 93.05-93.05m161.23 97.51A312.01 312.01 0 001188 78.86m134.45 242.81c84.76-12.11 161.24-58 210.95-128.1M246.08 41.9v261.28m55.44-186.72h223.69M450.65 41.9v130.64m164.42-65h167.6M615.07 209.5h167.6M689.63 41.9v186.72M931.8 79.5h256.82m134.48-37.6v279.77M875.72 209.5v19.12" stroke-width="12.75" stroke-miterlimit="9.92" fill="none" stroke-linecap="round" stroke-linejoin="round" stroke="#70ad47"/>
  <path d="M73.75 446.79l19.6-24.9h7.66l-28.17 34.24.92-9.34zm-4.88-24.9h6.23v44.37h-6.23v-44.37zm12.27 20.69l4.92-4.55 16.81 28.23h-7.63l-14.1-23.68zm57.64 24.14q-4.39 0-7.5-1.65-3.12-1.65-4.76-4.82-1.62-3.2-1.62-7.72v-3.57q0-4.7 1.56-8.03 1.58-3.33 4.57-5.06 3-1.74 7.2-1.74 3.97 0 6.78 1.98 2.8 1.98 4.27 5.74 1.5 3.75 1.5 9v2.07h-21.36v-5h15.43q-.28-3.88-2.02-6.01-1.7-2.17-4.6-2.17-3.55 0-5.5 2.32-1.92 2.32-1.92 6.56v4.03q0 3.94 2.07 6.04 2.08 2.1 5.9 2.1 1.89 0 3.75-.75 1.86-.77 3.32-2.14l4.1 4.09q-2.36 2.26-5.29 3.5-2.93 1.23-5.89 1.23zm76.45-19.65q0-3.36-1.74-5.2-1.74-1.82-4.89-1.82-2.9 0-4.48 1.77-1.59 1.77-1.59 5l-1.25-6.1q1.5-3.15 3.94-4.85 2.47-1.74 5.43-1.74 3.42 0 5.83 1.52 2.44 1.5 3.69 4.4 1.28 2.9 1.28 6.98v19.23h-6.22v-19.2zm-37.85-12.49h6.23v31.68h-6.23v-31.68zm18.92 12.49q0-3.36-1.64-5.2-1.65-1.82-4.67-1.82-3.05 0-4.73 1.61-1.65 1.62-1.65 4.55l-.64-6.1q1.46-2.87 3.81-4.43 2.38-1.55 5.25-1.55 3.33 0 5.68 1.52 2.35 1.5 3.57 4.4 1.25 2.9 1.25 6.98v19.23h-6.23v-19.2zm64.82 19.65q-4.12 0-7.05-1.62-2.93-1.62-4.49-4.7-1.52-3.11-1.52-7.48v-5.15q0-4.3 1.52-7.36 1.56-3.08 4.49-4.67 2.93-1.61 7.05-1.61 4.12 0 7.05 1.61 2.93 1.59 4.45 4.67 1.56 3.05 1.56 7.36v5.25q0 4.33-1.56 7.41-1.52 3.05-4.45 4.67t-7.05 1.62zm0-5.92q3.26 0 5.03-2.05 1.8-2.04 1.8-5.73v-5.25q0-3.7-1.8-5.71-1.77-2.01-5.03-2.01-3.27 0-5.07 2.01-1.77 2.01-1.77 5.7v5.26q0 3.69 1.77 5.73 1.8 2.05 5.07 2.05zm40.83-30.52q0-4.21 1.92-6.29 1.95-2.1 5.98-2.1h4.58v5.92h-4.46q-.88 0-1.34.67-.46.67-.46 1.74v36.04h-6.22v-35.98zm-3.36 4.3h15.84v5.31h-15.84v-5.3zm58.1 0h6.2v31.68h-6.2v-31.68zm-12.88 19.26q0 3.33 1.68 5.16 1.7 1.8 4.79 1.8 3.05 0 4.73-1.62 1.68-1.62 1.68-4.6l.43 6.61q-.98 2.35-3.18 3.94-2.2 1.59-5.4 1.59-5.25 0-8.12-3.36-2.84-3.39-2.84-9.52v-19.26h6.23v19.27zm46.56-19.26h6.23v31.68h-6.23v-31.68zm17.43 7.51q-.82-1-2.07-1.53-1.26-.51-2.9-.51-2.96 0-4.61 1.64-1.62 1.62-1.62 4.52l-.64-6.1q1.46-2.84 3.78-4.4 2.32-1.58 5.13-1.58 2.17 0 3.9.64 1.78.6 3.09 1.83l-4.06 5.5zm39.67 24.63q-4.4 0-7.51-1.65-3.11-1.65-4.76-4.82-1.62-3.2-1.62-7.72v-3.57q0-4.7 1.56-8.03 1.59-3.33 4.58-5.06 2.99-1.74 7.2-1.74 3.97 0 6.77 1.98 2.81 1.98 4.28 5.74 1.5 3.75 1.5 9v2.07H438.1v-5h15.44q-.27-3.88-2.01-6.01-1.71-2.17-4.61-2.17-3.54 0-5.5 2.32-1.92 2.32-1.92 6.56v4.03q0 3.94 2.08 6.04 2.07 2.1 5.89 2.1 1.89 0 3.75-.75 1.86-.77 3.33-2.14l4.09 4.09q-2.35 2.26-5.28 3.5-2.93 1.23-5.9 1.23zm74.05-44.83h6.23v44.37h-6.23v-44.37zm3.02 38.45h25.49v5.92h-25.49v-5.92zm0-19.07h22.13v5.92h-22.13v-5.92zm0-19.38h25.49v5.92h-25.49v-5.92zm57.95 36.19q0 1.16.49 1.8.52.61 1.43.61h2.93v5.92h-3.66q-3.54 0-5.5-2.2-1.91-2.2-1.91-6.19v-36.13h6.22v36.2zm42.81 8.64q-4.4 0-7.5-1.65-3.12-1.65-4.77-4.82-1.61-3.2-1.61-7.72v-3.57q0-4.7 1.55-8.03 1.6-3.33 4.58-5.06 3-1.74 7.2-1.74 3.97 0 6.78 1.98 2.8 1.98 4.27 5.74 1.5 3.75 1.5 9v2.07h-21.37v-5h15.45q-.28-3.88-2.02-6.01-1.7-2.17-4.6-2.17-3.55 0-5.5 2.32-1.92 2.32-1.92 6.56v4.03q0 3.94 2.07 6.04 2.08 2.1 5.9 2.1 1.88 0 3.75-.75 1.86-.77 3.32-2.14l4.1 4.09q-2.36 2.26-5.29 3.5-2.93 1.23-5.89 1.23zm51.39 0q-4.33 0-7.42-1.62-3.05-1.62-4.67-4.7-1.61-3.08-1.61-7.44v-5.22q0-4.3 1.61-7.36 1.62-3.05 4.67-4.64 3.09-1.61 7.42-1.61 2.47 0 4.64.6 2.2.59 3.93 1.71 1.74 1.13 2.9 2.75l-4.48 4.03q-1.35-1.53-3.15-2.35-1.8-.82-3.75-.82-3.6 0-5.58 2.01-1.99 2.01-1.99 5.68v5.21q0 3.76 1.96 5.8 1.98 2.05 5.61 2.05 1.98 0 3.78-.89 1.8-.88 3.12-2.5l4.48 4.33q-1.19 1.6-2.93 2.72-1.74 1.1-3.93 1.68-2.17.58-4.61.58zm44.58-.31q-3.85 0-5.65-2.1-1.77-2.14-1.77-6.29v-32.65h6.23v32.71q0 1.16.46 1.8.46.61 1.34.61h3v5.92h-3.61zm-10.68-31.83h14.28v5.62h-14.28v-5.62zm40.83 0h6.22v31.68h-6.22v-31.68zm17.42 7.51q-.82-1-2.07-1.53-1.26-.51-2.9-.51-2.96 0-4.61 1.64-1.62 1.62-1.62 4.52l-.64-6.1q1.47-2.84 3.78-4.4 2.32-1.58 5.13-1.58 2.17 0 3.9.64 1.78.6 3.09 1.83l-4.06 5.5zm38.84 24.63q-4.12 0-7.04-1.62-2.93-1.62-4.5-4.7-1.52-3.11-1.52-7.48v-5.15q0-4.3 1.53-7.36 1.56-3.08 4.49-4.67 2.92-1.61 7.04-1.61t7.05 1.61q2.93 1.59 4.46 4.67 1.56 3.05 1.56 7.36v5.25q0 4.33-1.56 7.41-1.53 3.05-4.46 4.67-2.93 1.62-7.05 1.62zm0-5.92q3.27 0 5.04-2.05 1.8-2.04 1.8-5.73v-5.25q0-3.7-1.8-5.71-1.77-2.01-5.04-2.01-3.26 0-5.06 2.01-1.77 2.01-1.77 5.7v5.26q0 3.69 1.77 5.73 1.8 2.05 5.06 2.05zm39.92-26.22h6.22v31.68h-6.22v-31.68zm19.22 12.49q0-3.36-1.74-5.2-1.74-1.82-4.88-1.82-3.05 0-4.73 1.61-1.65 1.62-1.65 4.55l-.64-6.1q1.47-2.87 3.82-4.43 2.38-1.55 5.24-1.55 5.16 0 7.97 3.38 2.84 3.36 2.84 9.52v19.23h-6.23v-19.2zm33.69-25.18h6.22v6.22h-6.22v-6.22zm0 12.7h6.22v31.67h-6.22v-31.68zm46.54 32.13q-4.34 0-7.42-1.62-3.06-1.62-4.67-4.7-1.62-3.08-1.62-7.44v-5.22q0-4.3 1.62-7.36 1.61-3.05 4.67-4.64 3.08-1.61 7.41-1.61 2.47 0 4.64.6 2.2.59 3.94 1.71 1.74 1.13 2.9 2.75l-4.49 4.03q-1.34-1.53-3.14-2.35-1.8-.82-3.76-.82-3.6 0-5.58 2.01t-1.98 5.68v5.21q0 3.76 1.95 5.8 1.98 2.05 5.61 2.05 1.99 0 3.79-.89 1.8-.88 3.11-2.5l4.49 4.33q-1.2 1.6-2.93 2.72-1.74 1.1-3.94 1.68-2.17.58-4.6.58zm47.53 0q-2.8 0-5.28-.55-2.44-.55-4.57-1.65-2.14-1.1-3.94-2.75l3.7-4.54q2.56 1.95 5.09 2.93 2.53.97 5 .97 3.7 0 5.53-1.13 1.86-1.16 1.86-3.44 0-1.53-1-2.3-1.02-.76-2.51-1-1.5-.27-4.21-.49h-.52l-.52-.06h-.24q-.13-.03-.25-.03-3.08-.24-5.22-.88-2.13-.68-3.57-2.48-1.4-1.8-1.4-5.15 0-3.36 1.37-5.59 1.38-2.23 4.1-3.32 2.7-1.13 6.8-1.13 2.47 0 4.7.45 2.26.46 4.3 1.38 2.04.88 3.94 2.26l-3.76 4.54q-2.38-1.52-4.7-2.29-2.29-.76-4.48-.76-3.18 0-4.76 1.1-1.6 1.07-1.6 3.23 0 1.29.9 1.93.91.64 2.28.85 1.38.22 3.9.37.2.03.38.03.2 0 .42.03h.19q.09 0 .18.03 3.33.21 5.64.88 2.35.68 3.94 2.66 1.59 1.98 1.59 5.74 0 3.42-1.47 5.67-1.46 2.23-4.42 3.36-2.93 1.13-7.39 1.13zm99.94-44.83h6.22v44.37h-6.22v-44.37zm-25.21 0h6.23v44.37h-6.23v-44.37zm3.88 19.56h24.62v5.92h-24.62v-5.92zm68.14 25.27q-4.12 0-7.05-1.62-2.93-1.62-4.49-4.7-1.53-3.11-1.53-7.48v-5.15q0-4.3 1.53-7.36 1.56-3.08 4.49-4.67 2.93-1.61 7.05-1.61 4.12 0 7.05 1.61 2.93 1.59 4.45 4.67 1.56 3.05 1.56 7.36v5.25q0 4.33-1.56 7.41-1.52 3.05-4.45 4.67t-7.05 1.62zm0-5.92q3.26 0 5.03-2.05 1.8-2.04 1.8-5.73v-5.25q0-3.7-1.8-5.71-1.77-2.01-5.03-2.01-3.27 0-5.07 2.01-1.77 2.01-1.77 5.7v5.26q0 3.69 1.77 5.73 1.8 2.05 5.07 2.05zm54.1 5.92q-2.96 0-5.16-1.4-2.2-1.44-3.23-4.03l.42-6.63q0 2.05.74 3.48.73 1.44 2.1 2.2 1.4.76 3.39.76 3.08 0 4.76-1.86 1.7-1.89 1.7-5.3v-6.87q0-3.48-1.7-5.4-1.68-1.93-4.76-1.93-1.98 0-3.39.73-1.37.74-2.1 2.17-.74 1.4-.74 3.39l-.64-6.1q1.44-2.78 3.76-4.28 2.32-1.52 5.15-1.52 3.36 0 5.74 1.52 2.41 1.5 3.66 4.4 1.25 2.9 1.25 6.98v6.9q0 4.03-1.28 6.9t-3.75 4.4q-2.47 1.49-5.92 1.49zm-14.2-44.83h6.23v44.37h-6.22v-44.37zm66.26 44.83q-2.96 0-5.16-1.4-2.2-1.44-3.24-4.03l.43-6.63q0 2.05.73 3.48.74 1.44 2.1 2.2 1.41.76 3.4.76 3.08 0 4.76-1.86 1.7-1.89 1.7-5.3v-6.87q0-3.48-1.7-5.4-1.68-1.93-4.76-1.93-1.99 0-3.4.73-1.36.74-2.1 2.17-.73 1.4-.73 3.39l-.64-6.1q1.43-2.78 3.75-4.28 2.32-1.52 5.16-1.52 3.36 0 5.74 1.52 2.41 1.5 3.66 4.4 1.25 2.9 1.25 6.98v6.9q0 4.03-1.28 6.9t-3.75 4.4q-2.48 1.49-5.92 1.49zm-14.2-44.83h6.23v44.37h-6.22v-44.37zm75.53 12.69l-13.49 39.1q-.73 2.16-1.92 3.41-1.19 1.29-2.93 1.84-1.74.54-4.27.54h-1.25v-5.98h1.25q1.74 0 2.74-.7 1.04-.7 1.8-2.41l11.72-35.8h6.35zm-28.04 0h6.34l9.74 27.53-3.45 6.74-12.63-34.27zm51.5-12.69h6.23v6.22h-6.23v-6.22zm0 12.7h6.23v31.67h-6.23v-31.68zm44.95 32.13q-2.8 0-5.28-.55-2.44-.55-4.58-1.65-2.13-1.1-3.93-2.75l3.69-4.54q2.56 1.95 5.1 2.93 2.53.97 5 .97 3.7 0 5.52-1.13 1.87-1.16 1.87-3.44 0-1.53-1.01-2.3-1-.76-2.5-1-1.5-.27-4.21-.49h-.52l-.52-.06h-.25q-.12-.03-.24-.03-3.08-.24-5.22-.88-2.14-.68-3.57-2.48-1.4-1.8-1.4-5.15 0-3.36 1.37-5.59t4.09-3.32q2.72-1.13 6.8-1.13 2.48 0 4.7.45 2.26.46 4.3 1.38 2.05.88 3.94 2.26l-3.75 4.54q-2.38-1.52-4.7-2.29-2.29-.76-4.49-.76-3.17 0-4.76 1.1-1.58 1.07-1.58 3.23 0 1.29.88 1.93.92.64 2.3.85 1.36.22 3.9.37.18.03.36.03.22 0 .43.03h.18q.1 0 .19.03 3.32.21 5.64.88 2.35.68 3.94 2.66 1.59 1.98 1.59 5.74 0 3.42-1.47 5.67-1.46 2.23-4.42 3.36-2.93 1.13-7.39 1.13zm47.52-.31q-3.85 0-5.65-2.1-1.77-2.14-1.77-6.29v-32.65h6.22v32.71q0 1.16.46 1.8.46.61 1.34.61h3v5.92h-3.6zm-10.69-31.83h14.28v5.62h-14.28v-5.62zm52.03 32.14q-2.81 0-5.28-.55-2.44-.55-4.58-1.65-2.14-1.1-3.94-2.75l3.7-4.54q2.56 1.95 5.1 2.93 2.53.97 5 .97 3.69 0 5.52-1.13 1.86-1.16 1.86-3.44 0-1.53-1-2.3-1.01-.76-2.5-1-1.5-.27-4.22-.49h-.52l-.52-.06h-.24q-.12-.03-.24-.03-3.09-.24-5.22-.88-2.14-.68-3.57-2.48-1.4-1.8-1.4-5.15 0-3.36 1.37-5.59t4.09-3.32q2.71-1.13 6.8-1.13 2.47 0 4.7.45 2.26.46 4.3 1.38 2.05.88 3.94 2.26l-3.75 4.54q-2.38-1.52-4.7-2.29-2.3-.76-4.49-.76-3.17 0-4.76 1.1-1.59 1.07-1.59 3.23 0 1.29.89 1.93.91.64 2.29.85 1.37.22 3.9.37.19.03.37.03.21 0 .43.03h.18q.1 0 .18.03 3.33.21 5.65.88 2.35.68 3.94 2.66 1.58 1.98 1.58 5.74 0 3.42-1.46 5.67-1.47 2.23-4.43 3.36-2.93 1.13-7.38 1.13zm89.25 0q-4.6 0-8.12-2.05-3.48-2.04-5.4-5.8-1.92-3.75-1.92-8.7V438q0-4.94 1.92-8.7 1.92-3.75 5.4-5.8 3.51-2.07 8.12-2.07 3.82 0 7.02 1.65 3.2 1.62 5.34 4.6 2.17 3 2.93 6.93h-6.38q-.58-2.07-1.95-3.69-1.34-1.65-3.18-2.53-1.83-.89-3.78-.89-2.72 0-4.76 1.32-2.04 1.3-3.17 3.69-1.13 2.35-1.13 5.5v12.17q0 3.11 1.13 5.5 1.13 2.37 3.17 3.68 2.04 1.29 4.76 1.29 1.98 0 3.78-.83 1.84-.82 3.18-2.44 1.37-1.62 1.95-3.85h6.38q-.76 3.94-2.93 6.93-2.17 3-5.37 4.64-3.2 1.62-6.99 1.62zm47.79-8.64q0 1.16.48 1.8.52.61 1.44.61h2.93v5.92h-3.66q-3.54 0-5.5-2.2-1.92-2.2-1.92-6.19v-36.13h6.23v36.2zm48.7-23.5h6.2v31.68h-6.2v-31.68zm-12.88 19.27q0 3.33 1.68 5.16 1.7 1.8 4.79 1.8 3.05 0 4.73-1.62 1.68-1.62 1.68-4.6l.42 6.61q-.97 2.35-3.17 3.94-2.2 1.59-5.4 1.59-5.25 0-8.12-3.36-2.84-3.39-2.84-9.52v-19.26h6.23v19.26zm60.75 12.87q-2.96 0-5.15-1.4-2.2-1.44-3.24-4.03l.43-6.63q0 2.05.73 3.48.73 1.44 2.1 2.2 1.41.76 3.4.76 3.08 0 4.75-1.86 1.71-1.89 1.71-5.3v-6.87q0-3.48-1.7-5.4-1.68-1.93-4.77-1.93-1.98 0-3.38.73-1.38.74-2.11 2.17-.73 1.4-.73 3.39l-.64-6.1q1.43-2.78 3.75-4.28 2.32-1.52 5.16-1.52 3.36 0 5.74 1.52 2.4 1.5 3.66 4.4 1.25 2.9 1.25 6.98v6.9q0 4.03-1.28 6.9t-3.76 4.4q-2.47 1.49-5.92 1.49zm-14.19-44.83h6.23v44.37h-6.23v-44.37z" fill="#70ad47"/>
</svg>
